<svg width="52" height="52" viewBox="0 0 52 52" fill="none" xmlns="http://www.w3.org/2000/svg">
<path fill-rule="evenodd" clip-rule="evenodd" d="M8.34941 19.8681C9.3632 19.1071 10.4179 18.4036 11.5086 17.761C11.7785 17.6039 12.0485 17.4469 12.3234 17.295L12.4234 17.2392H12.5134L12.5634 17.2139C12.6333 17.1734 12.7233 17.1278 12.8233 17.0822C13.0387 16.9832 13.2589 16.8953 13.4831 16.8188C13.7231 16.7327 13.983 16.6618 14.2229 16.5909C14.7401 16.4534 15.264 16.3435 15.7925 16.2616C16.3324 16.1705 16.8873 16.1046 17.4571 16.054C18.5918 15.9527 19.7815 15.9121 21.0362 15.8919C22.2909 15.8716 23.6106 15.8615 24.9952 15.821C25.6851 15.821 26.3949 15.7653 27.1197 15.7146L28.2144 15.6234C28.5843 15.588 28.9543 15.5424 29.3392 15.4867C30.8619 15.2645 32.3658 14.9258 33.838 14.4736C35.3002 14.0407 36.74 13.5335 38.152 12.954C38.8468 12.6653 39.5316 12.3664 40.2114 12.0575C38.8041 10.6115 37.1897 9.38889 35.4226 8.4307C34.4229 8.93723 33.4231 9.44376 32.4234 9.86418C31.2663 10.3605 30.0731 10.7652 28.8543 11.0748C28.5694 11.1457 28.2694 11.2166 27.9695 11.2774C27.6696 11.3382 27.3697 11.3939 27.0697 11.4446C26.4699 11.5509 25.87 11.637 25.2752 11.713C24.0855 11.87 22.9108 11.9815 21.7761 12.1132C20.6413 12.2449 19.5116 12.3766 18.4119 12.569C17.867 12.6704 17.3222 12.7818 16.7823 12.9186C16.2283 13.0555 15.6825 13.2247 15.1477 13.4251C14.8678 13.5264 14.5878 13.6429 14.2979 13.7746L13.853 13.9975C13.7031 14.0734 13.5431 14.1646 13.3532 14.2659C13.1668 14.3737 12.9865 14.4921 12.8133 14.6205C12.7633 14.6509 12.7133 14.6965 12.6583 14.7319L12.5084 14.7876L12.4634 14.8231L12.4284 14.8535L12.3784 14.8991L12.2834 14.9903L11.5086 15.7399C10.4622 16.753 9.4258 17.7795 8.39939 18.8196C7.89952 19.3616 7.35466 19.9036 6.83479 20.4557C6.75481 20.7191 6.68482 20.9622 6.61984 21.251C7.1897 20.7647 7.76622 20.3038 8.34941 19.8681Z" fill="#1C64F2"/>
<path fill-rule="evenodd" clip-rule="evenodd" d="M10.8888 26.4328L11.7286 26.4632H12.1235C12.2184 26.4632 12.3334 26.4632 12.4484 26.4632C12.9483 26.4632 13.4481 26.529 14.018 26.5949C15.1227 26.7265 16.2874 26.9292 17.4871 27.1622C18.6868 27.3952 19.9215 27.6687 21.2012 27.9422C22.4809 28.2157 23.7955 28.5045 25.1502 28.7729C25.83 28.9046 26.5149 29.0363 27.2147 29.1579L28.2744 29.3352L28.8043 29.4213L29.3542 29.5277C30.8238 29.7303 32.3134 29.8468 33.828 29.9025C35.3427 29.9582 36.8723 29.9481 38.4219 29.9025C39.9715 29.8569 41.5461 29.7353 43.1357 29.5935C44.0105 29.5175 44.8903 29.4264 45.7701 29.3352C45.9228 28.3125 45.9997 27.2797 46 26.2453C45.9986 25.3987 45.9468 24.553 45.845 23.7127C44.7203 23.9052 43.6256 24.0926 42.5409 24.2598C41.0412 24.5029 39.5416 24.7156 38.077 24.8878C36.6123 25.0601 35.1927 25.1867 33.798 25.2526C32.4034 25.3184 31.0387 25.3488 29.7241 25.2931H28.7243L27.7246 25.2323L25.7651 25.0753C24.4704 24.9588 23.2007 24.8271 21.956 24.7055C20.7113 24.5839 19.4916 24.4624 18.2919 24.3763C17.0922 24.2901 15.9225 24.2344 14.7328 24.2496C14.133 24.2496 13.5381 24.28 12.8733 24.356C12.7033 24.356 12.5334 24.3965 12.3434 24.432H12.2084L12.1035 24.4624L11.8885 24.5181L11.0387 24.7511C9.90902 25.055 8.80929 25.364 7.73456 25.6628L6 26.1694V26.2909C6 26.4125 6 26.5341 6 26.6556C6.52987 26.5999 7.07473 26.5594 7.61959 26.5341C8.69433 26.4125 9.77406 26.4024 10.8888 26.4328Z" fill="#1C64F2"/>
<path fill-rule="evenodd" clip-rule="evenodd" d="M11.4686 13.3542C11.7186 13.1212 11.9685 12.8932 12.2284 12.6704L12.3234 12.5842L12.3634 12.5488L12.3984 12.5184L12.4434 12.4779L12.6733 12.2905L12.9633 12.0878L13.2782 11.8852C13.4981 11.7535 13.7281 11.6269 13.963 11.5053C14.4329 11.2673 14.9328 11.0545 15.4626 10.857C15.9925 10.6594 16.5024 10.4872 17.0472 10.3505C18.132 10.0263 19.2767 9.75275 20.4764 9.48429C21.6761 9.21583 22.9358 8.97776 24.2304 8.68397C24.8753 8.54214 25.5351 8.40031 26.195 8.24329C26.5299 8.16731 26.8648 8.09133 27.1947 8.00522L27.6946 7.88365L28.1945 7.74689C29.2492 7.46323 30.2989 7.12892 31.3337 6.73383C27.0194 5.5249 22.4297 5.81596 18.2978 7.56051C14.1659 9.30505 10.7301 12.4024 8.53936 16.3579C9.51912 15.2672 10.4955 14.2659 11.4686 13.3542Z" fill="#1C64F2"/>
<path fill-rule="evenodd" clip-rule="evenodd" d="M10.8638 37.8449L10.4789 37.5106L10.089 37.2016L9.30917 36.5735C8.99425 36.3202 8.68433 36.067 8.3744 35.7884C9.73013 38.3519 11.6136 40.5904 13.8973 42.3522C16.181 44.114 18.8117 45.358 21.6111 46C18.4327 43.8813 15.3659 41.5954 12.4234 39.1517L10.8638 37.8449Z" fill="#1C64F2"/>
<path fill-rule="evenodd" clip-rule="evenodd" d="M9.68407 34.3245L10.4689 34.9019C10.5988 34.9931 10.7288 35.0944 10.8638 35.1856L11.2637 35.4439C11.7985 35.7884 12.3384 36.1328 12.8833 36.457C17.3532 39.244 21.9818 41.7607 26.7448 43.9941C28.1311 44.6425 29.5324 45.2655 30.9488 45.8632C33.2999 45.2516 35.5208 44.2096 37.5021 42.7886C34.1496 41.9174 30.9004 40.9634 27.7546 39.9267C22.8304 38.3098 17.9918 36.4366 13.2582 34.3144C12.6983 34.0611 12.1435 33.8078 11.5936 33.5495L11.1787 33.357L10.7688 33.1949C10.4889 33.0886 10.2189 32.9771 9.94401 32.8606C8.85428 32.4149 7.78955 31.9354 6.74981 31.4221L6.65483 31.3714C6.73481 31.6905 6.82479 31.9995 6.91977 32.3085C7.83287 32.967 8.75431 33.639 9.68407 34.3245Z" fill="#1C64F2"/>
<path fill-rule="evenodd" clip-rule="evenodd" d="M7.12971 29.4669C8.16945 29.8012 9.23419 30.171 10.3189 30.566L11.1387 30.8649L11.5486 31.0169L13.6381 31.645C15.9175 32.3389 18.3019 33.0683 20.7763 33.8078C22.016 34.1725 23.2757 34.5474 24.5654 34.9171L26.5049 35.4743L28.0045 35.8846L28.5044 36.0163C29.1892 36.1784 29.864 36.3354 30.5489 36.4874L32.6133 36.9382C33.9963 37.232 35.4043 37.5173 36.8373 37.7942C38.4419 38.1032 40.0715 38.4071 41.7261 38.6908C42.9384 37.1199 43.9138 35.3753 44.6203 33.514C42.2309 33.2912 39.8982 33.0582 37.6221 32.815C36.1225 32.658 34.6928 32.4959 33.2632 32.3085L31.1437 32.0552C30.4489 31.9742 29.7541 31.8881 29.0842 31.7969L28.5843 31.7311L28.0845 31.6551L27.0847 31.493L21.2862 30.5407C18.7518 30.1203 16.3224 29.7201 13.988 29.3656L12.2484 29.1123L11.8085 29.0515C11.6686 29.0515 11.5236 29.0515 11.3836 29.0262L10.5389 28.9755C9.41914 28.9046 8.32608 28.8168 7.25968 28.7121L6.14496 28.5956L6.21994 29.1782C6.50986 29.2693 6.82479 29.3656 7.12971 29.4669Z" fill="#1C64F2"/>
<path fill-rule="evenodd" clip-rule="evenodd" d="M8.03948 23.3328C9.10122 22.9165 10.1842 22.5581 11.2837 22.259L12.1235 22.0412L12.3334 21.9905H12.4484L12.7383 21.9145C12.9583 21.8689 13.1982 21.8284 13.4531 21.793C13.7081 21.7575 13.953 21.7322 14.2329 21.7119C14.7728 21.6663 15.3277 21.6511 15.8925 21.6461C16.4574 21.641 17.0472 21.6461 17.6321 21.6866C18.8218 21.7423 20.0565 21.8436 21.3362 21.9601C22.6158 22.0766 23.9505 22.2134 25.3352 22.3248C26.03 22.3856 26.7298 22.4362 27.4446 22.4818C27.7995 22.4818 28.1595 22.5274 28.5244 22.5426H29.6341C31.1714 22.5707 32.7089 22.503 34.2379 22.34C35.7826 22.1779 37.3272 21.9247 38.8768 21.6106C40.4264 21.2966 42.001 20.9167 43.5006 20.5013L45.0402 20.0708C44.4674 18.2566 43.6463 16.5328 42.6008 14.9497L41.7211 15.279C40.3464 15.7855 38.9818 16.2414 37.6271 16.6466C36.2724 17.0518 34.9178 17.3912 33.5881 17.6597C32.2986 17.9201 30.9949 18.1028 29.6841 18.2067L29.2092 18.2371H28.7093C28.3844 18.2371 28.0595 18.2675 27.7346 18.2827C27.0897 18.2827 26.4499 18.3232 25.815 18.3334C24.5454 18.3334 23.3157 18.3334 22.091 18.3739C20.8663 18.4144 19.6966 18.4144 18.5319 18.4853C17.947 18.5208 17.3721 18.5664 16.8023 18.6322C16.2324 18.6981 15.6526 18.7842 15.0677 18.8956C14.7728 18.9564 14.4779 19.0222 14.173 19.0982C13.868 19.1742 13.5581 19.2755 13.2132 19.3971C13.0432 19.4579 12.8633 19.5288 12.6683 19.6149L12.5933 19.6503L12.5134 19.6858L12.4384 19.7212L12.3834 19.7516L12.1735 19.8732L11.3437 20.3797C10.2389 21.0382 9.1542 21.7018 8.09447 22.3805C7.42797 22.7993 6.77647 23.2231 6.13996 23.6519L6.07997 24.1584C6.74481 23.8697 7.38465 23.5911 8.03948 23.3328Z" fill="#1C64F2"/>
</svg>
