<svg width="1440" height="800" viewBox="0 0 1440 800" fill="none" xmlns="http://www.w3.org/2000/svg">
<g clip-path="url(#clip0_2046_5482)">
<rect width="1440" height="800" fill="white"/>
<g filter="url(#filter0_f_2046_5482)">
<path d="M868.213 146.995C788.477 70.953 685.305 58.9998 665.67 -49.4227C656.883 -97.946 702.935 -135.765 752.248 -135.765H937.221C950.649 -135.765 963.998 -137.157 977.272 -139.186C1012.62 -144.591 1087.34 -152.843 1136.22 -135.765C1223.05 -105.431 1219.61 -8.53061 1302.76 30.781C1364.81 60.1163 1421.58 20.966 1475.43 63.5172C1542.13 116.219 1511.35 250.972 1489.94 319.717C1481.27 347.544 1476.21 376.498 1477.7 405.605L1492.66 697.212C1496.42 770.509 1438 832 1364.61 832C1301.62 832 1248.59 786.023 1232.4 725.156C1225.41 698.911 1217.01 672.118 1207.42 650.314C1177.33 581.859 1132.78 558.301 1103.49 489.497C1078.08 429.797 1091.08 386.558 1061.75 328.681C1014.9 236.205 943.235 218.54 868.213 146.995Z" fill="url(#paint0_linear_2046_5482)"/>
</g>
<rect x="1007.5" y="-41.5" width="71.5" height="67.0546" stroke="white" stroke-opacity="0.5"/>
<rect x="1080" y="-41.5" width="71.5" height="67.0546" stroke="white" stroke-opacity="0.5"/>
<rect x="1152.5" y="-41.5" width="71.5" height="67.0546" stroke="white" stroke-opacity="0.5"/>
<rect x="1225" y="-41.5" width="71.5" height="67.0546" stroke="white" stroke-opacity="0.5"/>
<rect x="1297.5" y="-41.5" width="71.5" height="67.0546" stroke="white" stroke-opacity="0.5"/>
<rect x="1370" y="-41.5" width="71.5" height="67.0546" stroke="white" stroke-opacity="0.5"/>
<rect x="1007.5" y="26.5544" width="71.5" height="67.0546" stroke="white" stroke-opacity="0.5"/>
<rect x="1080" y="26.5547" width="71.5" height="67.0546" stroke="white" stroke-opacity="0.5"/>
<rect x="1152.5" y="26.5547" width="71.5" height="67.0546" stroke="white" stroke-opacity="0.5"/>
<rect x="1225" y="26.5547" width="71.5" height="67.0546" stroke="white" stroke-opacity="0.5"/>
<rect x="1297.5" y="26.5547" width="71.5" height="67.0546" stroke="white" stroke-opacity="0.5"/>
<rect x="1370" y="26.5547" width="71.5" height="67.0546" stroke="white" stroke-opacity="0.5"/>
<rect x="1007.5" y="94.6094" width="71.5" height="67.0546" stroke="white" stroke-opacity="0.5"/>
<rect x="1080" y="94.6094" width="71.5" height="67.0546" stroke="white" stroke-opacity="0.5"/>
<rect x="1152.5" y="94.6094" width="71.5" height="67.0546" stroke="white" stroke-opacity="0.5"/>
<rect x="1225" y="94.6094" width="71.5" height="67.0546" stroke="white" stroke-opacity="0.5"/>
<rect x="1297.5" y="94.6094" width="71.5" height="67.0546" stroke="white" stroke-opacity="0.5"/>
<rect x="1370" y="94.6094" width="71.5" height="67.0546" stroke="white" stroke-opacity="0.5"/>
<rect x="1007.5" y="162.664" width="71.5" height="67.0546" stroke="white" stroke-opacity="0.5"/>
<rect x="1080" y="162.664" width="71.5" height="67.0546" stroke="white" stroke-opacity="0.5"/>
<rect x="1152.5" y="162.664" width="71.5" height="67.0546" stroke="white" stroke-opacity="0.5"/>
<rect x="1225" y="162.664" width="71.5" height="67.0546" stroke="white" stroke-opacity="0.5"/>
<rect x="1297.5" y="162.664" width="71.5" height="67.0546" stroke="white" stroke-opacity="0.5"/>
<rect x="1370" y="162.664" width="71.5" height="67.0546" stroke="white" stroke-opacity="0.5"/>
<rect x="1007.5" y="230.719" width="71.5" height="67.0546" stroke="white" stroke-opacity="0.5"/>
<rect x="1370" y="230.719" width="71.5" height="67.0546" stroke="white" stroke-opacity="0.5"/>
<rect x="1007.5" y="298.773" width="71.5" height="67.0546" stroke="white" stroke-opacity="0.5"/>
<rect x="1370" y="298.773" width="71.5" height="67.0546" stroke="white" stroke-opacity="0.5"/>
<rect x="1007.5" y="366.828" width="71.5" height="67.0546" stroke="white" stroke-opacity="0.5"/>
<rect x="1370" y="366.827" width="71.5" height="67.0546" stroke="white" stroke-opacity="0.5"/>
<rect x="1007.5" y="434.883" width="71.5" height="67.0546" stroke="white" stroke-opacity="0.5"/>
<rect x="1370" y="434.883" width="71.5" height="67.0546" stroke="white" stroke-opacity="0.5"/>
<rect x="1007.5" y="502.937" width="71.5" height="67.0546" stroke="white" stroke-opacity="0.5"/>
<rect x="1370" y="502.937" width="71.5" height="67.0546" stroke="white" stroke-opacity="0.5"/>
<rect x="1007.5" y="570.991" width="71.5" height="67.0546" stroke="white" stroke-opacity="0.5"/>
<rect x="1080" y="570.991" width="71.5" height="67.0546" stroke="white" stroke-opacity="0.5"/>
<rect x="1152.5" y="570.991" width="71.5" height="67.0546" stroke="white" stroke-opacity="0.5"/>
<rect x="1225" y="570.991" width="71.5" height="67.0546" stroke="white" stroke-opacity="0.5"/>
<rect x="1297.5" y="570.991" width="71.5" height="67.0546" stroke="white" stroke-opacity="0.5"/>
<rect x="1370" y="570.991" width="71.5" height="67.0546" stroke="white" stroke-opacity="0.5"/>
<rect x="1007.5" y="639.046" width="71.5" height="67.0546" stroke="white" stroke-opacity="0.5"/>
<rect x="1080" y="639.046" width="71.5" height="67.0546" stroke="white" stroke-opacity="0.5"/>
<rect x="1152.5" y="639.046" width="71.5" height="67.0546" stroke="white" stroke-opacity="0.5"/>
<rect x="1225" y="639.046" width="71.5" height="67.0546" stroke="white" stroke-opacity="0.5"/>
<rect x="1297.5" y="639.046" width="71.5" height="67.0546" stroke="white" stroke-opacity="0.5"/>
<rect x="1370" y="639.046" width="71.5" height="67.0546" stroke="white" stroke-opacity="0.5"/>
<rect x="1007.5" y="707.101" width="71.5" height="67.0546" stroke="white" stroke-opacity="0.5"/>
<rect x="1080" y="707.101" width="71.5" height="67.0546" stroke="white" stroke-opacity="0.5"/>
<rect x="1152.5" y="707.101" width="71.5" height="67.0546" stroke="white" stroke-opacity="0.5"/>
<rect x="1225" y="707.101" width="71.5" height="67.0546" stroke="white" stroke-opacity="0.5"/>
<rect x="1297.5" y="707.101" width="71.5" height="67.0546" stroke="white" stroke-opacity="0.5"/>
<rect x="1370" y="707.101" width="71.5" height="67.0546" stroke="white" stroke-opacity="0.5"/>
<rect x="1007.5" y="775.156" width="71.5" height="67.0546" stroke="white" stroke-opacity="0.5"/>
<rect x="1080" y="775.156" width="71.5" height="67.0546" stroke="white" stroke-opacity="0.5"/>
<rect x="1152.5" y="775.156" width="71.5" height="67.0546" stroke="white" stroke-opacity="0.5"/>
<rect x="1225" y="775.156" width="71.5" height="67.0546" stroke="white" stroke-opacity="0.5"/>
<rect x="1297.5" y="775.156" width="71.5" height="67.0546" stroke="white" stroke-opacity="0.5"/>
<rect x="1370" y="775.156" width="71.5" height="67.0546" stroke="white" stroke-opacity="0.5"/>
</g>
<defs>
<filter id="filter0_f_2046_5482" x="314.586" y="-496" width="1551.41" height="1678" filterUnits="userSpaceOnUse" color-interpolation-filters="sRGB">
<feFlood flood-opacity="0" result="BackgroundImageFix"/>
<feBlend mode="normal" in="SourceGraphic" in2="BackgroundImageFix" result="shape"/>
<feGaussianBlur stdDeviation="175" result="effect1_foregroundBlur_2046_5482"/>
</filter>
<linearGradient id="paint0_linear_2046_5482" x1="1155.02" y1="-130.939" x2="1155.02" y2="832" gradientUnits="userSpaceOnUse">
<stop stop-color="#57CAE1"/>
<stop offset="1" stop-color="#42E279"/>
</linearGradient>
<clipPath id="clip0_2046_5482">
<rect width="1440" height="800" fill="white"/>
</clipPath>
</defs>
</svg>
